<?xml version="1.0" encoding="UTF-8"?>
<svg id="_Слой_1" data-name="Слой 1" xmlns="http://www.w3.org/2000/svg" version="1.1" viewBox="0 0 50 20">
  <defs>
    <style>
      .cls-1 {
        fill: red;
      }

      .cls-1, .cls-2 {
        stroke-width: 0px;
      }

      .cls-2 {
        fill: #fff;
      }
    </style>
  </defs>
  <rect class="cls-1" width="50" height="20"/>
  <g>
    <path class="cls-2" d="M10.82,3.15l2.72,5.82c.15.36.32.78.51,1.28l.51,1.28.06-.06c-.12-.82-.22-1.73-.3-2.74-.08-1.01-.11-1.84-.11-2.49v-3.1h2.86v13.41h-2.86l-2.41-5.19-1.29-3.28-.06.06c.11.82.2,1.78.27,2.87.07,1.1.1,2.04.1,2.82v2.72h-2.86V3.15h2.86Z"/>
    <path class="cls-2" d="M19.61,16.56V3.15h7.37v2.59h-4.47v2.78h4.06v2.49h-4.06v2.97h4.68v2.59h-7.58Z"/>
    <path class="cls-2" d="M30.97,3.15l1.12,6.34c.01.06.03.14.04.22s.03.18.04.28c.27,1.6.44,2.68.51,3.24h.08c.07-.56.24-1.64.51-3.24.01-.1.03-.19.04-.28s.03-.16.04-.22l1.12-6.15h3.02l1.12,6.15c.01.06.03.14.04.22s.03.18.04.28c.27,1.6.44,2.68.51,3.24h.08c.07-.56.24-1.64.51-3.24.01-.1.03-.19.04-.28s.03-.16.04-.22l1.12-6.34h3l-3.23,13.41h-3.06l-1.02-4.48c-.16-.68-.31-1.43-.43-2.25-.12-.82-.2-1.54-.25-2.14h-.08c-.04.6-.12,1.31-.25,2.14-.12.82-.27,1.57-.43,2.25l-1.02,4.48h-3.06l-3.23-13.41h3Z"/>
  </g>
</svg>